<svg width="120" height="120" viewBox="0 0 120 120" fill="none" xmlns="http://www.w3.org/2000/svg">
<g clip-path="url(#clip0_361_5820)">
<path d="M119.94 60C119.94 93.12 93.0735 120 59.97 120C26.8666 120 0 93.12 0 60C0 26.88 26.8666 0 59.97 0C93.0735 0 119.94 26.88 119.94 60Z" fill="#FFF6E8"/>
<path d="M73.1634 91.56C70.045 88.44 68.7856 79.98 68.9655 72.54C69.0854 68.28 67.886 65.34 66.2669 63.66C65.967 63.36 65.5472 63 65.0075 62.64C65.0075 62.64 64.7676 62.46 64.7076 62.4C64.4078 62.22 64.048 62.16 63.7481 62.1C63.7481 62.1 63.6881 62.1 63.6282 62.1C63.2684 62.1 62.9085 62.1 62.6087 62.1C62.6087 62.1 62.4288 62.1 62.2489 62.1C61.7091 62.16 61.1694 62.1 60.6896 62.1C60.6297 62.1 60.5097 62.1 60.3298 62.04H60.2099C59.7901 61.92 59.1904 61.92 58.4708 62.34C58.051 62.58 57.6312 62.82 57.2114 63.12C49.955 68.7 47.7961 69.42 47.7961 69.42C47.7961 69.42 47.6762 69.3 47.4962 69.12C45.6971 70.26 43.4183 72.06 43.2983 73.38C43.2983 73.62 43.2983 73.98 43.8381 74.4C46.5967 76.62 52.7136 73.86 53.3733 73.56L60.6297 68.1C60.6297 68.1 61.3493 67.92 61.5292 68.22C61.7091 68.52 61.7091 68.94 61.4093 69.12L54.0929 74.64H53.973C53.6732 74.88 46.4768 78.24 42.9985 75.42C42.039 74.64 41.919 73.8 41.979 73.26C42.1589 71.1 45.2174 69 46.7766 68.04C45.7571 66 45.0974 61.92 51.6342 56.94C47.976 54 49.8351 55.08 44.3178 54.48C38.8006 53.94 34.8426 59.82 34.8426 59.82C30.3448 57.72 28.1859 65.46 28.1859 65.46C22.4288 63.18 22.7886 70.38 20.3298 71.46C17.8711 72.54 17.991 76.5 18.1109 80.1C18.1109 80.76 18.5307 81.84 19.0105 83.1C20.1499 85.32 24.3478 93.24 25.6072 95.34H25.4872C27.4063 98.52 29.2654 101.34 30.7046 103.02C34.7826 107.94 36.9415 101.22 36.9415 101.22C42.2789 105.9 49.0555 106.62 49.1154 109.14C49.1154 110.58 50.6747 112.68 54.4528 119.88C57.931 120.18 61.4693 120.3 65.1274 119.94C74.9625 119.1 84.018 115.86 91.8141 111C81.919 102.06 75.7421 94.38 73.1034 91.74L73.1634 91.56ZM44.3178 94.98C44.3178 94.98 44.1379 95.1 44.018 95.1C41.3193 95.46 38.9205 95.16 36.8216 94.56C36.7616 95.4 36.5217 96.72 36.042 98.94C36.042 99.12 35.922 99.24 35.8021 99.3C35.6821 99.42 35.4423 99.48 35.2624 99.42C34.9025 99.36 34.6627 99 34.7826 98.64C35.1424 96.84 35.5022 94.74 35.5622 94.08C23.8681 89.64 21.4693 72.72 21.4093 72.48C21.4093 72.12 21.5892 71.82 21.949 71.76C22.3088 71.76 22.6087 71.94 22.6687 72.3C22.6687 72.3 23.5082 78.36 26.5667 83.94C30.5847 91.32 36.4018 94.62 43.8381 93.66C44.1979 93.66 44.4977 93.9 44.5577 94.2C44.5577 94.44 44.4977 94.68 44.3178 94.8V94.98ZM49.6552 90.96C49.6552 90.96 49.5352 91.02 49.4753 91.02C42.6986 93.6 39.7001 90.9 34.003 85.02C28.066 78.9 27.8861 67.32 27.8861 66.84C27.8861 66.48 28.1859 66.18 28.5457 66.18C28.9055 66.18 29.2054 66.48 29.2054 66.84C29.2054 66.96 29.3853 78.42 34.9625 84.12C40.7796 90.12 43.2983 91.98 49.0555 89.76C49.4153 89.64 49.7751 89.76 49.895 90.12C50.015 90.42 49.895 90.72 49.6552 90.9V90.96ZM50.9745 89.94C50.9745 89.94 50.8546 90.06 50.7946 90.12C50.5547 90.3 50.2549 90.3 50.075 90.12C43.7181 86.1 40.1799 79.08 38.3208 73.92C36.2819 68.34 35.7421 63.78 35.7421 63.6C35.7421 63.24 35.982 62.94 36.3418 62.88C36.7016 62.88 37.0015 63.12 37.0615 63.48C37.0615 63.66 39.2804 81.66 50.7946 89.04C51.0944 89.22 51.2144 89.64 50.9745 89.94ZM60.8696 74.4C51.5742 79.02 53.0135 96.18 53.0135 96.36C53.0135 96.6 52.9535 96.78 52.7736 96.96C52.6537 97.02 52.5937 97.08 52.4138 97.08C52.054 97.08 51.7541 96.84 51.6941 96.48C51.6941 96.3 51.2743 91.92 52.1139 86.82C52.1739 86.4 52.2938 86.1 52.4138 85.68C51.934 84.36 49.2354 81.24 48.1559 80.16C47.916 79.92 47.916 79.5 48.1559 79.26C48.3958 79.02 48.8156 79.02 49.0555 79.26C49.3553 79.62 51.5142 81.96 52.7736 83.82C54.1529 78.66 56.6717 74.94 60.2099 73.2C60.5097 73.02 60.9295 73.2 61.1094 73.5C61.2893 73.8 61.1094 74.22 60.8096 74.4H60.8696Z" fill="#FA9BFA"/>
<path d="M25.6672 95.22C24.4078 93.12 20.2099 85.2 19.0705 82.98L18.7706 82.38L8.39581 90.24C10.7946 94.38 13.6732 98.22 16.9715 101.64L25.6072 95.28H25.7271L25.6672 95.22Z" fill="#150050"/>
<path d="M60.2099 73.2C56.6717 74.94 54.2129 78.66 52.7736 83.82C53.1334 84.36 53.4333 84.9 53.5532 85.26C53.6732 85.56 53.5532 85.8 53.3134 85.98C53.3134 85.98 53.1934 86.04 53.1334 86.1C52.7736 86.22 52.4138 86.04 52.2939 85.68C52.2339 86.04 52.114 86.34 51.994 86.76C51.1544 91.8 51.5143 96.24 51.5742 96.42C51.5742 96.78 51.934 97.02 52.2939 97.02C52.4138 97.02 52.5337 97.02 52.6537 96.9C52.8336 96.78 52.9535 96.54 52.8936 96.3C52.8936 96.12 51.4543 78.96 60.7496 74.34C61.0495 74.16 61.2294 73.8 61.0495 73.44C60.8696 73.14 60.5098 72.96 60.1499 73.14L60.2099 73.2Z" fill="#150050"/>
<path d="M43.8381 93.78C36.4018 94.68 30.5847 91.44 26.5667 84.06C23.5082 78.48 22.6687 72.48 22.6687 72.42C22.6687 72.06 22.3089 71.82 21.949 71.88C21.5892 71.88 21.3493 72.24 21.4093 72.6C21.4093 72.78 23.8681 89.7 35.5622 94.2V94.08C35.5023 93.9 35.4423 93.72 35.5622 93.54C35.6822 93.18 36.042 93 36.4018 93.12C36.7017 93.24 36.9415 93.36 36.8816 94.56C38.9805 95.16 41.3793 95.4 44.078 95.1C44.1979 95.1 44.3178 95.04 44.3778 94.98C44.5577 94.86 44.6777 94.62 44.6177 94.38C44.6177 94.02 44.2579 93.78 43.8981 93.84L43.8381 93.78Z" fill="#150050"/>
<path d="M48.9955 89.82C43.2384 92.04 40.7196 90.12 34.9025 84.18C29.3253 78.42 29.1454 67.02 29.1454 66.9C29.1454 66.54 28.8456 66.24 28.4858 66.24C28.1259 66.24 27.8261 66.54 27.8261 66.9C27.8261 67.38 28.006 78.96 33.943 85.08C39.6402 90.96 42.6387 93.66 49.4153 91.08C49.4153 91.08 49.5352 91.08 49.5952 91.02C49.8351 90.84 49.895 90.54 49.8351 90.24C49.7151 89.88 49.3553 89.76 48.9955 89.88V89.82Z" fill="#150050"/>
<path d="M37.0015 63.4199C37.0015 63.0599 36.6417 62.8199 36.2819 62.8199C35.922 62.8199 35.6822 63.1799 35.6822 63.5399C35.6822 63.7199 36.2219 68.2799 38.2609 73.8599C40.1199 79.0199 43.7181 86.0399 50.015 90.0599C50.2549 90.2399 50.5547 90.1799 50.7346 90.0599C50.7946 90.0599 50.8546 89.9399 50.9145 89.8799C51.0945 89.5799 51.0345 89.1599 50.7346 88.9799C39.1604 81.5999 37.0015 63.5999 37.0015 63.4199Z" fill="#150050"/>
<path d="M41.979 73.14C41.979 73.74 42.039 74.58 42.9985 75.3C46.5367 78.12 53.6732 74.7 53.973 74.58H54.0929L61.4093 69C61.4093 69 61.7691 68.4 61.5292 68.1C61.2893 67.8 60.9295 67.74 60.6297 67.98L53.3733 73.44C52.7136 73.74 46.5367 76.5 43.8381 74.28C43.2983 73.86 43.2983 73.5 43.2983 73.26C43.4183 71.94 45.6971 70.14 47.4962 69C47.3163 68.76 47.0165 68.4 46.7766 67.86C45.2174 68.82 42.1589 70.98 41.979 73.08V73.14Z" fill="#150050"/>
<path d="M53.1934 86.1599C53.1934 86.1599 53.3133 86.1599 53.3733 86.0399C53.6132 85.8599 53.6732 85.5599 53.6132 85.3199C53.4933 84.8999 53.1934 84.4199 52.8336 83.8799C51.5742 81.9599 49.4153 79.6199 49.1154 79.3199C48.8756 79.0799 48.4558 79.0199 48.2159 79.3199C47.976 79.5599 47.916 79.9799 48.2159 80.2199C49.2354 81.2999 51.994 84.4799 52.4738 85.7399C52.5937 86.0999 52.9535 86.2799 53.3134 86.1599H53.1934Z" fill="#150050"/>
<path d="M36.3418 93.12C35.982 93 35.6222 93.12 35.5022 93.54C35.4423 93.72 35.5022 93.9 35.5022 94.08V94.2C35.5022 94.86 35.1424 96.96 34.7226 98.76C34.6627 99.12 34.9025 99.48 35.2024 99.54C35.3823 99.54 35.5622 99.54 35.7421 99.42C35.8621 99.3 35.982 99.18 35.982 99.06C36.4618 96.84 36.7016 95.46 36.7616 94.68C36.8816 93.48 36.6417 93.36 36.2819 93.24L36.3418 93.12Z" fill="#150050"/>
<path d="M46.7766 67.92C47.0165 68.4 47.3163 68.82 47.4962 69.06C47.6762 69.24 47.7961 69.36 47.7961 69.36C47.7961 69.36 49.955 68.64 57.2114 63.06C57.6312 62.76 58.051 62.52 58.4708 62.28C59.1904 61.86 59.7901 61.92 60.2099 61.98H60.3298C60.3298 61.98 60.5697 62.04 60.6896 62.1C61.1694 62.22 61.7091 62.22 62.2489 62.1C62.3688 62.1 62.4887 62.1 62.6087 62.1C63.0285 62.1 63.3883 62.04 63.6881 62.1C63.6881 62.1 63.7481 62.1 63.8081 62.1C64.048 62.1 64.2878 62.1 64.4678 62.22C64.5877 62.28 64.7076 62.34 64.7676 62.4C64.8875 62.46 65.0075 62.52 65.0675 62.58C65.6072 63 65.967 63.36 66.3268 63.66C66.6866 64.02 66.8666 64.26 66.9265 64.26L78.8606 55.5C80.5397 58.08 93.5532 74.16 103.208 66.06C104.048 65.34 104.708 64.44 105.187 63.48C104.468 64.26 103.328 64.56 102.129 64.2C100.45 63.72 98.9505 62.76 97.6312 61.68C93.4333 58.38 90.075 54.36 86.8366 50.16C83.7181 46.08 80.9595 41.82 78.3808 37.38C76.1019 33.42 74.003 29.28 72.2039 25.08C70.5247 21 69.0255 16.86 68.6057 12.42C68.4857 11.04 68.4258 9.71996 69.0854 8.39996C69.6851 7.19996 70.5247 6.77996 71.8441 6.89996V6.77996H71.964C69.3853 6.17996 66.9265 6.53996 64.8875 8.45996C54.3328 18.36 69.8051 43.14 69.8051 43.14L51.7541 56.82C45.1574 61.8 45.8771 65.88 46.8965 67.98L46.7766 67.92Z" fill="#150050"/>
<path d="M91.6942 50.22L71.7241 6.83999C70.4648 6.71999 69.6252 7.13999 68.9655 8.33999C68.3059 9.59999 68.3658 10.98 68.4858 12.36C68.9655 16.8 70.4048 20.94 72.084 25.02C73.8831 29.28 75.922 33.36 78.2609 37.32C80.8396 41.76 83.5982 46.08 86.7166 50.1C89.8951 54.3 93.3134 58.38 97.5113 61.62C98.8906 62.7 100.33 63.66 102.009 64.14C103.208 64.5 104.348 64.14 105.067 63.42C105.247 63.24 105.367 63.06 105.487 62.82C105.547 62.7 105.487 62.52 105.607 62.34C105.607 62.34 105.607 62.28 105.607 62.22L91.5742 50.16L91.6942 50.22Z" fill="#5E85FE"/>
<path d="M71.7241 6.83997L91.6342 50.22L105.667 62.28C105.667 62.28 111.004 51.06 95.8321 28.68C81.7991 7.97997 73.0435 6.77997 71.7841 6.71997H71.6042V6.83997H71.7241ZM95.7121 44.28C95.2923 44.64 94.8726 44.94 94.2729 44.94L93.2534 44.64C93.0135 44.22 92.5337 44.04 92.2339 43.74C89.2354 41.04 87.0765 37.74 85.3973 34.08C84.7976 32.82 84.1979 31.5 84.1379 30.12C84.078 28.74 84.1379 28.2 85.5772 27.84L85.997 27.96C86.4768 28.26 87.0165 28.56 87.4363 28.92C91.7541 33 95.0525 37.68 95.8321 43.8L95.7121 44.22V44.28Z" fill="#5E85FE"/>
<path d="M85.997 27.96L85.5772 27.84C84.078 28.2 84.078 28.74 84.1379 30.12C84.1979 31.56 84.7976 32.82 85.3973 34.08C87.1364 37.68 89.2354 41.04 92.2339 43.74C92.5937 44.04 93.0735 44.16 93.2534 44.64L94.2729 44.94C94.8726 44.94 95.2923 44.64 95.7121 44.28L95.8321 43.86C95.0525 37.74 91.6941 33.06 87.4363 28.98C87.0165 28.56 86.4768 28.32 85.997 28.02V27.96Z" fill="#150050"/>
<path d="M29.2654 40.44C26.6867 39.24 24.1679 37.98 21.5892 36.84C20.1499 36.18 18.6507 35.64 16.9715 35.58C14.1529 35.58 12.5337 37.56 13.0735 40.32C13.1334 40.68 13.5532 40.98 13.3133 41.4L13.4933 41.82C13.4933 41.82 13.6732 41.82 13.7331 41.94C14.6327 43.32 15.8321 44.28 17.2714 45.06C20.9295 46.98 24.8876 47.4 28.9055 47.04C31.904 46.74 34.7826 45.9 37.6012 44.88C38.4408 44.58 39.2804 44.22 40.06 43.56C39.0405 43.32 38.1409 43.14 37.3013 42.96C34.4828 42.42 31.7241 41.7 29.1454 40.44H29.2654Z" fill="#FFBF7B"/>
<path d="M46.3568 35.94C44.9175 33.6 43.6582 31.2 42.0989 28.98C40.9595 27.42 39.7001 26.04 37.8411 25.26C36.1619 24.54 34.5427 24.6 33.1634 25.92C31.7841 27.24 31.3643 28.86 31.5442 30.72C31.8441 33.96 33.5832 36.36 35.922 38.46C38.2609 40.56 41.0795 41.82 44.1379 42.66C47.3763 43.5 50.6747 43.8 54.2129 43.62C53.913 43.44 53.7931 43.38 53.6732 43.32C50.5547 41.52 48.2759 39 46.3568 36V35.94Z" fill="#FFBF7B"/>
</g>
<defs>
<clipPath id="clip0_361_5820">
<rect width="120" height="120" fill="white"/>
</clipPath>
</defs>
</svg>
