<?xml version="1.0" encoding="utf-8"?>
<!-- Generator: Adobe Illustrator 26.3.1, SVG Export Plug-In . SVG Version: 6.00 Build 0)  -->
<svg version="1.1" id="Layer_1" xmlns="http://www.w3.org/2000/svg" xmlns:xlink="http://www.w3.org/1999/xlink" x="0px" y="0px"
	 viewBox="0 0 307.7 307.7" style="enable-background:new 0 0 307.7 307.7;" xml:space="preserve">
<style type="text/css">
	.st0{fill:#E7E6FF;}
	.st1{fill:#5F34E2;}
</style>
<g>
	<path class="st0" d="M153.9,307.7C69,307.7,0,238.7,0,153.9S69,0,153.9,0c84.8,0,153.9,69,153.9,153.9S238.7,307.7,153.9,307.7z
		 M153.9,80C113.1,80,80,113.1,80,153.9c0,40.7,33.1,73.9,73.9,73.9c40.7,0,73.9-33.1,73.9-73.9C227.7,113.1,194.6,80,153.9,80z"/>
	<path class="st1" d="M153.9,307.7c-41.1,0-79.7-16-108.8-45.1c-60-60-60-157.6,0-217.6C74.1,16,112.8,0,153.9,0
		c41.1,0,79.7,16,108.8,45.1l-56.6,56.6C192.1,87.7,173.6,80,153.9,80s-38.3,7.7-52.2,21.6c-28.8,28.8-28.8,75.6,0,104.4
		c13.9,13.9,32.5,21.6,52.2,21.6s38.3-7.7,52.2-21.6l56.6,56.6C233.6,291.7,194.9,307.7,153.9,307.7z"/>
</g>
</svg>
